# xmcd
#
# Track frame offsets: 
#        150
#        26680
#        41365
#        59140
#        80515
#        94540
#        109018
#        127614
#        142539
#        159039
#
# Disc length: 2356 seconds
#
# Revision: 0
# Processed by: cddbd v1.5.2PL0 Copyright (c) Steve Scherf et al.
# Submitted via: ExactAudioCopy v1.2
#
DISCID=6a09320a
DTITLE=Willie Farmer - The Man From The Hill
DYEAR=2019
DGENRE=Blues
TTITLE0=Feel So Bad
TTITLE1=Shake It
TTITLE2=Break Bad
TTITLE3=Fist Full Of Dollars
TTITLE4=Millionaire
TTITLE5=Come Back Home
TTITLE6=At The Meeting
TTITLE7=I Am The Lightning
TTITLE8=Daddy Was Right
TTITLE9=The Man From The Hill
EXTD=
EXTT0=
EXTT1=
EXTT2=
EXTT3=
EXTT4=
EXTT5=
EXTT6=
EXTT7=
EXTT8=
EXTT9=
PLAYORDER=
